<svg id="visual" viewBox="0 0 900 900" width="900" height="900" xmlns="http://www.w3.org/2000/svg" xmlns:xlink="http://www.w3.org/1999/xlink" version="1.1"><path d="M0 688L25 683.8C50 679.7 100 671.3 150 666C200 660.7 250 658.3 300 678.3C350 698.3 400 740.7 450 748.3C500 756 550 729 600 725.7C650 722.3 700 742.7 750 749.3C800 756 850 749 875 745.5L900 742L900 901L875 901C850 901 800 901 750 901C700 901 650 901 600 901C550 901 500 901 450 901C400 901 350 901 300 901C250 901 200 901 150 901C100 901 50 901 25 901L0 901Z" fill="#002233" stroke-linecap="round" stroke-linejoin="miter"></path></svg>