<svg id="visual" viewBox="0 0 1920 900" width="1920" height="900" xmlns="http://www.w3.org/2000/svg" xmlns:xlink="http://www.w3.org/1999/xlink" version="1.1"><path d="M0 688L53.3 683.8C106.7 679.7 213.3 671.3 320 666C426.7 660.7 533.3 658.3 640 678.3C746.7 698.3 853.3 740.7 960 748.3C1066.7 756 1173.3 729 1280 725.7C1386.7 722.3 1493.3 742.7 1600 749.3C1706.7 756 1813.3 749 1866.7 745.5L1920 742L1920 901L1866.7 901C1813.3 901 1706.7 901 1600 901C1493.3 901 1386.7 901 1280 901C1173.3 901 1066.7 901 960 901C853.3 901 746.7 901 640 901C533.3 901 426.7 901 320 901C213.3 901 106.7 901 53.3 901L0 901Z" fill="#002233" stroke-linecap="round" stroke-linejoin="miter"></path></svg>